<mxfile host="65bd71144e">
    <diagram id="kfqbYSQvsbw34wrSjgwR" name="Page-1">
        <mxGraphModel dx="1076" dy="787" grid="1" gridSize="10" guides="1" tooltips="1" connect="1" arrows="1" fold="1" page="1" pageScale="1" pageWidth="850" pageHeight="1100" math="0" shadow="0">
            <root>
                <mxCell id="0"/>
                <mxCell id="1" parent="0"/>
                <UserObject label="&lt;font style=&quot;font-size: 11px;&quot;&gt;NEXT: Prepare for submission&lt;/font&gt;" link="../../../submit/#placeholder" id="69">
                    <mxCell style="rounded=0;whiteSpace=wrap;html=1;strokeColor=none;" parent="1" vertex="1">
                        <mxGeometry x="840" y="360" width="80" height="40" as="geometry"/>
                    </mxCell>
                </UserObject>
                <mxCell id="2" value="" style="endArrow=block;html=1;rounded=0;endFill=1;startArrow=none;" parent="1" edge="1">
                    <mxGeometry width="50" height="50" relative="1" as="geometry">
                        <mxPoint x="40" y="400" as="sourcePoint"/>
                        <mxPoint x="930" y="400" as="targetPoint"/>
                    </mxGeometry>
                </mxCell>
                <mxCell id="5" value="Finish Preparing Data Package Locally" style="rounded=0;whiteSpace=wrap;html=1;fillColor=#532565;fontColor=#F0F0F0;fontStyle=1;glass=0;fontSize=13;strokeColor=#532565;" parent="1" vertex="1">
                    <mxGeometry x="716" y="377" width="110" height="50" as="geometry"/>
                </mxCell>
                <UserObject label="List contributing experiments" link="#make-a-list-of-results-shared-and-contributing-experiments" id="10">
                    <mxCell style="rounded=0;whiteSpace=wrap;html=1;fillColor=#982568;fontColor=#0F0F0F;fontStyle=1;opacity=50;" parent="1" vertex="1">
                        <mxGeometry x="215" y="290" width="130" height="50" as="geometry"/>
                    </mxCell>
                </UserObject>
                <mxCell id="24" value="" style="endArrow=none;html=1;fontColor=#0F0F0F;rounded=0;" parent="1" edge="1">
                    <mxGeometry width="50" height="50" relative="1" as="geometry">
                        <mxPoint x="274" y="400" as="sourcePoint"/>
                        <mxPoint x="274" y="340" as="targetPoint"/>
                    </mxGeometry>
                </mxCell>
                <mxCell id="25" value="" style="endArrow=none;html=1;fontColor=#0F0F0F;rounded=0;" parent="1" edge="1">
                    <mxGeometry width="50" height="50" relative="1" as="geometry">
                        <mxPoint x="435" y="400" as="sourcePoint"/>
                        <mxPoint x="435" y="340" as="targetPoint"/>
                    </mxGeometry>
                </mxCell>
                <mxCell id="26" value="" style="endArrow=none;html=1;fontColor=#0F0F0F;rounded=0;" parent="1" edge="1">
                    <mxGeometry width="50" height="50" relative="1" as="geometry">
                        <mxPoint x="403" y="460" as="sourcePoint"/>
                        <mxPoint x="403" y="400" as="targetPoint"/>
                    </mxGeometry>
                </mxCell>
                <mxCell id="28" value="" style="endArrow=none;html=1;fontColor=#0F0F0F;rounded=0;" parent="1" edge="1">
                    <mxGeometry width="50" height="50" relative="1" as="geometry">
                        <mxPoint x="245" y="400" as="sourcePoint"/>
                        <mxPoint x="245" y="460" as="targetPoint"/>
                    </mxGeometry>
                </mxCell>
                <mxCell id="31" value="" style="endArrow=none;html=1;fontColor=#0F0F0F;rounded=0;" parent="1" edge="1">
                    <mxGeometry width="50" height="50" relative="1" as="geometry">
                        <mxPoint x="569.5" y="400" as="sourcePoint"/>
                        <mxPoint x="569.5" y="460" as="targetPoint"/>
                    </mxGeometry>
                </mxCell>
                <UserObject label="&lt;b&gt;Data Package&lt;/b&gt;" link="#initialize-your-data-package" id="45">
                    <mxCell style="swimlane;fontStyle=0;childLayout=stackLayout;horizontal=1;startSize=50;horizontalStack=0;resizeParent=1;resizeParentMax=0;resizeLast=0;collapsible=1;marginBottom=0;whiteSpace=wrap;html=1;rounded=0;shadow=0;glass=0;fillColor=#982568;gradientColor=none;gradientDirection=radial;opacity=50;movable=1;resizable=1;rotatable=1;deletable=1;editable=1;connectable=1;noLabel=0;expand=1;flipV=0;" parent="1" vertex="1" collapsed="1">
                        <mxGeometry x="185" y="460" width="130" height="50" as="geometry">
                            <mxRectangle x="210" y="460" width="120" height="110" as="alternateBounds"/>
                        </mxGeometry>
                    </mxCell>
                </UserObject>
                <mxCell id="46" value="Initialize data package" style="text;strokeColor=default;fillColor=#FFFFFF;align=center;verticalAlign=middle;spacingLeft=4;spacingRight=4;overflow=hidden;points=[[0,0.5],[1,0.5]];portConstraint=eastwest;rotatable=0;whiteSpace=wrap;html=1;rounded=0;shadow=0;glass=0;" parent="45" vertex="1">
                    <mxGeometry y="50" width="120" height="60" as="geometry"/>
                </mxCell>
                <mxCell id="58" value="" style="endArrow=none;html=1;fontColor=#0F0F0F;rounded=0;" parent="1" edge="1">
                    <mxGeometry width="50" height="50" relative="1" as="geometry">
                        <mxPoint x="105" y="340" as="sourcePoint"/>
                        <mxPoint x="105" y="400" as="targetPoint"/>
                    </mxGeometry>
                </mxCell>
                <UserObject label="Right Away" link="#what-to-do-right-away" id="68">
                    <mxCell style="shape=singleArrow;whiteSpace=wrap;html=1;arrowWidth=0.6309523809523853;arrowSize=0.13571428571428612;fillColor=#532565;strokeColor=#532565;fontSize=13;labelBorderColor=none;fontColor=#FFFFFF;fontStyle=1" parent="1" vertex="1">
                        <mxGeometry x="27" y="380" width="160" height="40" as="geometry"/>
                    </mxCell>
                </UserObject>
                <UserObject label="&lt;b&gt;Set Yourself Up For Success&lt;/b&gt;" link="#what-to-do-right-away" id="56">
                    <mxCell style="swimlane;fontStyle=0;childLayout=stackLayout;horizontal=1;startSize=50;horizontalStack=0;resizeParent=1;resizeParentMax=0;resizeLast=0;collapsible=1;marginBottom=0;whiteSpace=wrap;html=1;rounded=0;shadow=0;glass=0;fillColor=#982568;gradientColor=none;gradientDirection=radial;opacity=50;" parent="1" vertex="1" collapsed="1">
                        <mxGeometry x="45" y="290" width="130" height="50" as="geometry">
                            <mxRectangle x="45" y="290" width="120" height="150" as="alternateBounds"/>
                        </mxGeometry>
                    </mxCell>
                </UserObject>
                <mxCell id="57" value="&lt;span style=&quot;&quot;&gt;1. Make sure all files are accessible&lt;/span&gt;" style="text;strokeColor=default;fillColor=#FFFFFF;align=left;verticalAlign=middle;spacingLeft=4;spacingRight=4;overflow=hidden;points=[[0,0.5],[1,0.5]];portConstraint=eastwest;rotatable=0;whiteSpace=wrap;html=1;rounded=0;shadow=0;glass=0;" parent="56" vertex="1">
                    <mxGeometry y="50" width="120" height="40" as="geometry"/>
                </mxCell>
                <mxCell id="67" value="&lt;span style=&quot;&quot;&gt;2. Finalize existing resource file names/ paths&lt;/span&gt;" style="text;strokeColor=default;fillColor=#FFFFFF;align=left;verticalAlign=middle;spacingLeft=4;spacingRight=4;overflow=hidden;points=[[0,0.5],[1,0.5]];portConstraint=eastwest;rotatable=0;whiteSpace=wrap;html=1;rounded=0;shadow=0;glass=0;" parent="56" vertex="1">
                    <mxGeometry y="90" width="120" height="60" as="geometry"/>
                </mxCell>
                <UserObject label="&lt;font color=&quot;#ffffff&quot; style=&quot;font-size: 13px;&quot;&gt;&lt;b style=&quot;font-size: 13px;&quot;&gt;After Dataset-of-Interest Finalized&lt;/b&gt;&lt;/font&gt;" link="#what-to-do-when-your-dataset-of-interest-is-finalized" id="113">
                    <mxCell style="shape=singleArrow;whiteSpace=wrap;html=1;arrowWidth=0.6;arrowSize=0.042105263157894736;fillColor=#532565;strokeColor=#532565;fontSize=13;labelBorderColor=none;" parent="1" vertex="1">
                        <mxGeometry x="215" y="381" width="475" height="40" as="geometry"/>
                    </mxCell>
                </UserObject>
                <UserObject label="&lt;b&gt;Resource Tracker&lt;/b&gt;" link="#start-your-resource-tracker" id="50">
                    <mxCell style="swimlane;fontStyle=0;childLayout=stackLayout;horizontal=1;startSize=50;horizontalStack=0;resizeParent=1;resizeParentMax=0;resizeLast=0;collapsible=1;marginBottom=0;whiteSpace=wrap;html=1;rounded=0;shadow=0;glass=0;fillColor=#982568;gradientColor=none;gradientDirection=radial;opacity=50;swimlaneLine=1;" parent="1" vertex="1">
                        <mxGeometry x="505" y="460" width="190" height="190" as="geometry">
                            <mxRectangle x="505" y="460" width="130" height="50" as="alternateBounds"/>
                        </mxGeometry>
                    </mxCell>
                </UserObject>
                <mxCell id="51" value="&lt;b&gt;Step 1&lt;/b&gt;: Add your finalized dataset-of-interest to your Resource Tracker." style="text;strokeColor=default;fillColor=#FFFFFF;align=left;verticalAlign=middle;spacingLeft=4;spacingRight=4;overflow=hidden;points=[[0,0.5],[1,0.5]];portConstraint=eastwest;rotatable=0;whiteSpace=wrap;html=1;rounded=0;shadow=0;glass=0;" parent="50" vertex="1">
                    <mxGeometry y="50" width="190" height="50" as="geometry"/>
                </mxCell>
                <mxCell id="53" value="&lt;b&gt;Step 2&lt;/b&gt;: Add ONLY associated files/dependencies for the final dataset-of-interest that will be shared in a public repository to your Resource Tracker." style="text;strokeColor=default;fillColor=#FFFFFF;align=left;verticalAlign=middle;spacingLeft=4;spacingRight=4;overflow=hidden;points=[[0,0.5],[1,0.5]];portConstraint=eastwest;rotatable=0;whiteSpace=wrap;html=1;rounded=0;shadow=0;glass=0;" parent="50" vertex="1">
                    <mxGeometry y="100" width="190" height="90" as="geometry"/>
                </mxCell>
                <UserObject label="&lt;b&gt;Experiment Tracker&lt;/b&gt;" link="#start-your-experiment-tracker" id="41">
                    <mxCell style="swimlane;fontStyle=0;childLayout=stackLayout;horizontal=1;startSize=50;horizontalStack=0;resizeParent=1;resizeParentMax=0;resizeLast=0;collapsible=1;marginBottom=0;whiteSpace=wrap;html=1;rounded=0;shadow=0;glass=0;fillColor=#982568;gradientColor=none;gradientDirection=radial;opacity=50;" parent="1" vertex="1" collapsed="1">
                        <mxGeometry x="345" y="460" width="130" height="50" as="geometry">
                            <mxRectangle x="345" y="460" width="120" height="110" as="alternateBounds"/>
                        </mxGeometry>
                    </mxCell>
                </UserObject>
                <mxCell id="42" value="Document contributing experiments" style="text;strokeColor=default;fillColor=#FFFFFF;align=center;verticalAlign=middle;spacingLeft=4;spacingRight=4;overflow=hidden;points=[[0,0.5],[1,0.5]];portConstraint=eastwest;rotatable=0;whiteSpace=wrap;html=1;rounded=0;shadow=0;glass=0;" parent="41" vertex="1">
                    <mxGeometry y="50" width="120" height="60" as="geometry"/>
                </mxCell>
                <UserObject label="&lt;b&gt;Data Dictionary&lt;/b&gt;" link="#create-your-data-dictionaries" id="54">
                    <mxCell style="swimlane;fontStyle=0;childLayout=stackLayout;horizontal=1;startSize=50;horizontalStack=0;resizeParent=1;resizeParentMax=0;resizeLast=0;collapsible=1;marginBottom=0;whiteSpace=wrap;html=1;rounded=0;shadow=0;glass=0;fillColor=#982568;gradientColor=none;gradientDirection=radial;opacity=50;arcSize=15;swimlaneFillColor=none;" parent="1" vertex="1" collapsed="1">
                        <mxGeometry x="375" y="290" width="130" height="50" as="geometry">
                            <mxRectangle x="375" y="290" width="180" height="150" as="alternateBounds"/>
                        </mxGeometry>
                    </mxCell>
                </UserObject>
                <mxCell id="55" value="If the dataset of interest or any associated file/dependency of the dataset-of-interest is a tabular data file, document the variables in that file." style="text;strokeColor=default;fillColor=#FFFFFF;align=left;verticalAlign=middle;spacingLeft=4;spacingRight=4;overflow=hidden;points=[[0,0.5],[1,0.5]];portConstraint=eastwest;rotatable=0;whiteSpace=wrap;html=1;rounded=0;shadow=0;glass=0;" parent="54" vertex="1">
                    <mxGeometry y="50" width="180" height="100" as="geometry"/>
                </mxCell>
            </root>
        </mxGraphModel>
    </diagram>
</mxfile>